<?xml version="1.0" encoding="utf-8"?>
<!-- Generator: Adobe Illustrator 22.0.1, SVG Export Plug-In . SVG Version: 6.00 Build 0)  -->
<svg version="1.1" id="Layer_1" xmlns="http://www.w3.org/2000/svg" xmlns:xlink="http://www.w3.org/1999/xlink" x="0px" y="0px"
	 viewBox="0 0 290.3 218.3" style="enable-background:new 0 0 290.3 218.3;" xml:space="preserve">
<style type="text/css">
	.st0{fill:#F7B02B;}
	.st1{fill:#FFFFFF;}
	.st2{fill:none;}
	.st3{fill:#474D4D;}
	.st4{font-family:'Chivo-Black';}
	.st5{font-size:50px;}
	.st6{font-family:'Overpass-Bold';}
	.st7{font-size:32px;}
</style>
<polygon class="st0" points="224.3,31.3 224.3,31.3 224.3,31.3 224.3,31.3 "/>
<g>
	<path class="st0" d="M290.3,86.3c0,54.4-57.8,132-144,132s-142.8-22.7-146-77c-4-68,123.5-130.6,209-141
		C242.3-3.7,290.3,31.9,290.3,86.3z"/>
	<circle class="st1" cx="208.3" cy="21.3" r="5"/>
	<circle class="st1" cx="229.3" cy="37.3" r="7"/>
	<circle class="st1" cx="203.3" cy="49.3" r="5"/>
</g>
<rect y="76.5" class="st2" width="264.7" height="40.3"/>
<text transform="matrix(1 0 0 1 1.653035e-04 112.4718)" class="st3 st4 st5">Hot Potato</text>
<rect x="34.2" y="136" class="st2" width="196.3" height="28.3"/>
<text transform="matrix(1 0 0 1 34.1665 159.0763)" class="st1 st6 st7">Don’t drop it!</text>
</svg>
